<svg version="1.1" xmlns="http://www.w3.org/2000/svg" viewBox="0 0 392.2315673828125 312.29599664844574" width="392.2315673828125" height="312.29599664844574" class="excalidraw-svg">
  <!-- svg-source:excalidraw -->
  
  <defs>
    <style class="style-fonts">
      @font-face {
        font-family: "Virgil";
        src: url("https://excalidraw.com/Virgil.woff2");
      }
      @font-face {
        font-family: "Cascadia";
        src: url("https://excalidraw.com/Cascadia.woff2");
      }
      @font-face {
        font-family: "Assistant";
        src: url("https://excalidraw.com/Assistant-Regular.woff2");
      }
    </style>
    
  </defs>
  <g stroke-linecap="round"><g transform="translate(10.936676025390625 270.58432672657074) rotate(0 159.9741668701172 0.398223876953125)"><path d="M-0.44 -0.67 C52.84 -0.47, 266.54 0.25, 320.05 0.63 M1.53 1.6 C54.63 2.03, 266.04 2.4, 319.16 2.07" stroke="#1e1e1e" stroke-width="2" fill="none"/></g></g><mask/><g stroke-linecap="round"><g transform="translate(163.69993591308594 11.171484929695737) rotate(0 0.49777984619140625 132.74832153320312)"><path d="M-0.98 -1.17 C-0.77 43.08, 0.9 220.99, 1.05 265.32 M0.71 0.83 C0.77 45.29, -0.12 222.61, 0.13 266.77" stroke="#1e1e1e" stroke-width="2" fill="none"/></g></g><mask/><g transform="translate(17.016082763671875 265.67456720508636) rotate(0 155.9219512939453 -82.44720458984375)" stroke="none"><path fill="#1e1e1e" d="M -0.13,-0.76 Q -0.13,-0.76 1.54,-1.05 3.22,-1.33 5.48,-1.69 7.73,-2.06 10.75,-2.63 13.77,-3.20 16.80,-3.56 19.82,-3.92 23.01,-4.07 26.21,-4.22 29.10,-4.28 31.99,-4.35 34.39,-4.37 36.80,-4.40 38.84,-4.31 40.88,-4.21 42.27,-4.17 43.66,-4.13 44.55,-4.15 45.44,-4.17 46.17,-4.38 46.90,-4.59 47.74,-4.86 48.58,-5.13 49.52,-5.46 50.46,-5.79 51.09,-5.96 51.73,-6.13 52.28,-6.33 52.84,-6.53 53.50,-6.71 54.15,-6.90 55.06,-6.97 55.96,-7.04 56.69,-7.08 57.41,-7.12 58.37,-7.27 59.32,-7.41 60.20,-7.56 61.07,-7.71 62.11,-7.70 63.16,-7.70 63.84,-7.74 64.53,-7.79 65.19,-7.81 65.85,-7.83 66.86,-8.03 67.88,-8.23 69.08,-8.37 70.29,-8.52 71.21,-8.60 72.12,-8.69 72.82,-8.81 73.52,-8.94 74.19,-9.07 74.85,-9.19 75.81,-9.41 76.78,-9.63 77.59,-9.84 78.41,-10.05 79.43,-10.42 80.46,-10.78 81.30,-11.09 82.13,-11.40 82.94,-11.74 83.74,-12.08 84.42,-12.44 85.11,-12.81 85.68,-13.02 86.26,-13.24 87.15,-13.59 88.05,-13.93 89.03,-14.25 90.00,-14.56 90.53,-14.72 91.05,-14.88 92.39,-15.29 93.73,-15.70 94.33,-15.89 94.94,-16.09 95.53,-16.30 96.13,-16.52 96.98,-16.88 97.84,-17.24 98.47,-17.64 99.11,-18.04 99.87,-18.52 100.64,-18.99 101.31,-19.21 101.98,-19.42 102.49,-19.90 103.00,-20.38 104.27,-21.34 105.54,-22.29 106.31,-22.97 107.09,-23.65 107.56,-23.97 108.03,-24.29 108.66,-24.71 109.29,-25.13 109.88,-25.53 110.48,-25.92 110.97,-26.32 111.47,-26.72 112.01,-26.97 112.55,-27.21 112.98,-27.57 113.41,-27.94 113.97,-28.28 114.53,-28.63 114.99,-28.89 115.45,-29.16 115.93,-29.55 116.41,-29.93 116.83,-30.32 117.24,-30.72 117.68,-31.15 118.12,-31.58 118.40,-32.08 118.68,-32.58 119.00,-33.13 119.32,-33.68 119.65,-34.23 119.98,-34.78 120.40,-35.50 120.83,-36.22 121.20,-36.87 121.58,-37.53 121.94,-38.31 122.30,-39.10 122.60,-39.83 122.90,-40.56 123.13,-41.04 123.35,-41.52 123.60,-42.20 123.85,-42.88 124.18,-43.86 124.51,-44.84 124.72,-45.43 124.93,-46.02 125.24,-46.81 125.56,-47.60 125.82,-48.27 126.08,-48.94 126.29,-49.52 126.50,-50.10 126.75,-50.73 127.00,-51.35 127.24,-51.94 127.48,-52.52 127.72,-53.05 127.97,-53.59 128.21,-54.33 128.46,-55.08 128.67,-55.59 128.88,-56.10 129.12,-56.86 129.37,-57.62 129.60,-58.45 129.83,-59.28 130.23,-60.45 130.62,-61.62 130.81,-62.17 130.99,-62.72 131.26,-63.70 131.53,-64.68 131.83,-65.32 132.12,-65.97 132.48,-66.95 132.85,-67.94 133.11,-68.55 133.37,-69.16 133.72,-69.82 134.06,-70.48 134.35,-71.08 134.64,-71.67 135.01,-72.70 135.39,-73.74 135.61,-74.23 135.83,-74.72 136.14,-75.46 136.46,-76.20 136.73,-76.92 136.99,-77.63 137.15,-78.17 137.30,-78.71 137.52,-79.66 137.75,-80.61 138.06,-81.75 138.37,-82.89 138.50,-83.44 138.63,-83.98 138.84,-84.57 139.05,-85.17 139.39,-86.33 139.73,-87.49 139.99,-88.20 140.26,-88.92 140.52,-89.56 140.77,-90.20 141.19,-91.08 141.61,-91.95 142.18,-93.16 142.75,-94.36 142.93,-94.98 143.11,-95.60 143.32,-96.18 143.53,-96.76 143.81,-97.40 144.10,-98.04 144.44,-99.03 144.79,-100.02 145.02,-100.74 145.25,-101.46 145.63,-102.24 146.01,-103.02 146.66,-104.41 147.31,-105.79 147.53,-106.37 147.75,-106.94 148.43,-108.28 149.11,-109.63 149.79,-110.97 150.48,-112.30 150.82,-113.10 151.16,-113.90 151.53,-114.65 151.90,-115.39 152.38,-116.27 152.85,-117.14 153.25,-117.90 153.64,-118.65 153.90,-119.23 154.17,-119.81 154.48,-120.36 154.80,-120.91 155.22,-121.82 155.65,-122.73 155.98,-123.21 156.31,-123.69 156.82,-124.51 157.33,-125.32 157.75,-125.91 158.18,-126.50 158.56,-126.97 158.94,-127.43 159.40,-128.05 159.85,-128.67 160.37,-129.39 160.88,-130.10 161.54,-130.87 162.19,-131.64 162.63,-132.11 163.07,-132.58 163.44,-132.98 163.81,-133.37 164.27,-133.78 164.73,-134.18 165.46,-134.90 166.20,-135.61 166.63,-136.03 167.06,-136.45 167.73,-137.09 168.39,-137.74 169.04,-138.32 169.69,-138.90 170.09,-139.26 170.50,-139.61 171.41,-140.25 172.32,-140.88 172.97,-141.34 173.63,-141.80 174.25,-142.27 174.88,-142.75 175.40,-143.17 175.92,-143.59 176.44,-143.93 176.95,-144.28 177.85,-144.97 178.74,-145.65 179.48,-146.03 180.21,-146.42 180.82,-146.82 181.43,-147.23 182.09,-147.64 182.74,-148.05 183.38,-148.45 184.02,-148.84 184.65,-149.23 185.28,-149.61 185.95,-149.95 186.63,-150.29 188.10,-150.90 189.56,-151.51 190.43,-151.86 191.29,-152.22 192.10,-152.58 192.91,-152.95 193.89,-153.31 194.87,-153.68 196.12,-154.11 197.36,-154.55 198.23,-154.91 199.11,-155.26 200.16,-155.57 201.21,-155.89 202.27,-156.28 203.33,-156.68 204.29,-156.96 205.25,-157.24 205.97,-157.52 206.69,-157.79 207.51,-158.01 208.32,-158.23 209.09,-158.48 209.86,-158.72 210.66,-158.98 211.45,-159.24 212.53,-159.50 213.62,-159.75 215.36,-160.23 217.10,-160.71 218.07,-161.00 219.04,-161.28 219.71,-161.51 220.37,-161.75 221.03,-161.94 221.69,-162.12 222.20,-162.29 222.72,-162.45 223.53,-162.65 224.33,-162.86 224.89,-163.05 225.45,-163.24 226.20,-163.41 226.94,-163.58 227.72,-163.72 228.50,-163.87 229.19,-164.00 229.88,-164.14 230.69,-164.20 231.51,-164.26 232.27,-164.35 233.02,-164.45 233.81,-164.56 234.60,-164.67 235.40,-164.79 236.20,-164.91 237.96,-165.07 239.73,-165.22 240.71,-165.28 241.70,-165.35 242.38,-165.42 243.06,-165.49 244.42,-165.55 245.77,-165.61 246.58,-165.62 247.39,-165.62 248.20,-165.62 249.01,-165.62 249.82,-165.62 250.63,-165.62 251.34,-165.64 252.04,-165.65 252.70,-165.67 253.36,-165.69 254.10,-165.69 254.85,-165.70 255.75,-165.76 256.65,-165.81 257.56,-165.85 258.46,-165.88 259.21,-165.92 259.95,-165.95 261.33,-165.90 262.71,-165.85 263.88,-165.81 265.06,-165.77 265.79,-165.81 266.52,-165.84 267.19,-165.87 267.86,-165.91 268.67,-165.98 269.48,-166.05 270.14,-166.10 270.80,-166.16 271.62,-166.20 272.44,-166.24 273.23,-166.28 274.01,-166.31 274.89,-166.33 275.78,-166.35 277.09,-166.17 278.41,-165.99 279.29,-165.93 280.18,-165.86 280.75,-165.86 281.31,-165.87 282.66,-165.85 284.00,-165.84 284.72,-165.84 285.44,-165.84 286.05,-165.85 286.65,-165.87 287.20,-165.89 287.75,-165.90 288.62,-165.94 289.48,-165.98 290.36,-166.01 291.24,-166.04 291.88,-166.04 292.51,-166.03 293.56,-165.94 294.62,-165.85 295.19,-165.86 295.77,-165.88 296.37,-165.89 296.98,-165.90 297.96,-165.94 298.95,-165.97 299.60,-166.01 300.26,-166.04 300.86,-166.07 301.46,-166.10 302.02,-166.14 302.58,-166.18 303.11,-166.19 303.64,-166.21 304.20,-166.23 304.75,-166.24 305.33,-166.26 305.91,-166.27 306.51,-166.29 307.11,-166.31 307.75,-166.32 308.38,-166.34 310.05,-166.34 311.73,-166.35 312.00,-166.30 312.28,-166.26 312.52,-166.13 312.77,-166.00 312.96,-165.79 313.16,-165.59 313.27,-165.34 313.39,-165.08 313.42,-164.80 313.45,-164.53 313.39,-164.25 313.33,-163.98 313.19,-163.74 313.04,-163.50 312.83,-163.32 312.62,-163.14 312.36,-163.04 312.10,-162.93 311.82,-162.92 311.54,-162.90 311.27,-162.98 311.00,-163.05 310.77,-163.21 310.54,-163.37 310.37,-163.59 310.20,-163.81 310.11,-164.08 310.02,-164.34 310.02,-164.62 310.02,-164.90 310.11,-165.16 310.20,-165.43 310.37,-165.65 310.54,-165.87 310.77,-166.03 311.00,-166.19 311.27,-166.26 311.54,-166.34 311.82,-166.32 312.10,-166.31 312.36,-166.20 312.62,-166.10 312.83,-165.92 313.04,-165.74 313.19,-165.50 313.33,-165.26 313.39,-164.99 313.45,-164.71 313.42,-164.44 313.39,-164.16 313.27,-163.90 313.16,-163.65 312.96,-163.45 312.77,-163.24 312.52,-163.11 312.28,-162.98 312.00,-162.94 311.73,-162.89 311.73,-162.89 311.73,-162.89 310.05,-162.90 308.38,-162.90 307.75,-162.92 307.11,-162.93 306.51,-162.95 305.91,-162.97 305.33,-162.98 304.75,-163.00 304.20,-163.01 303.64,-163.03 303.11,-163.05 302.58,-163.06 302.02,-163.10 301.46,-163.14 300.86,-163.17 300.26,-163.20 299.60,-163.23 298.95,-163.27 297.96,-163.30 296.98,-163.34 296.37,-163.35 295.77,-163.36 295.19,-163.38 294.62,-163.39 293.56,-163.30 292.51,-163.21 291.88,-163.20 291.24,-163.20 290.36,-163.23 289.48,-163.26 288.62,-163.30 287.75,-163.34 287.20,-163.35 286.65,-163.37 286.04,-163.39 285.44,-163.40 284.71,-163.40 283.99,-163.41 282.62,-163.41 281.25,-163.41 280.67,-163.45 280.09,-163.48 279.17,-163.48 278.25,-163.47 277.01,-163.45 275.78,-163.43 274.89,-163.45 274.01,-163.47 273.23,-163.50 272.44,-163.54 271.62,-163.58 270.80,-163.62 270.14,-163.67 269.48,-163.73 268.67,-163.80 267.87,-163.87 267.20,-163.90 266.53,-163.93 265.79,-163.96 265.06,-163.99 263.89,-163.95 262.72,-163.90 261.36,-163.84 260.00,-163.77 259.29,-163.77 258.57,-163.77 257.73,-163.71 256.88,-163.66 255.87,-163.51 254.85,-163.37 254.11,-163.37 253.36,-163.37 252.70,-163.39 252.04,-163.41 251.34,-163.43 250.63,-163.44 249.83,-163.44 249.02,-163.44 248.21,-163.44 247.40,-163.44 246.59,-163.43 245.79,-163.43 244.48,-163.44 243.18,-163.46 242.53,-163.45 241.87,-163.45 240.92,-163.34 239.97,-163.23 238.26,-162.96 236.55,-162.69 235.74,-162.56 234.93,-162.42 234.12,-162.29 233.31,-162.17 232.49,-162.06 231.67,-161.95 230.98,-161.91 230.28,-161.87 229.60,-161.76 228.91,-161.65 228.16,-161.51 227.40,-161.37 226.73,-161.25 226.05,-161.12 225.45,-160.98 224.85,-160.84 224.02,-160.62 223.20,-160.41 222.65,-160.33 222.11,-160.24 221.48,-160.14 220.85,-160.04 220.18,-159.89 219.51,-159.75 218.54,-159.45 217.56,-159.14 215.82,-158.60 214.09,-158.06 213.06,-157.73 212.03,-157.41 211.21,-157.16 210.39,-156.92 209.56,-156.69 208.74,-156.47 207.99,-156.32 207.23,-156.17 206.45,-155.95 205.67,-155.73 204.78,-155.49 203.89,-155.25 202.80,-154.80 201.71,-154.35 200.73,-154.00 199.75,-153.66 198.87,-153.30 197.98,-152.94 196.78,-152.44 195.58,-151.93 194.68,-151.53 193.77,-151.12 192.94,-150.72 192.11,-150.31 191.29,-149.94 190.48,-149.57 189.09,-148.83 187.70,-148.10 187.12,-147.83 186.54,-147.56 185.92,-147.17 185.29,-146.79 184.67,-146.40 184.04,-146.01 183.42,-145.61 182.80,-145.21 182.10,-144.73 181.41,-144.24 180.76,-143.88 180.12,-143.51 179.64,-143.22 179.16,-142.92 178.24,-142.33 177.33,-141.74 176.79,-141.35 176.25,-140.96 175.59,-140.44 174.92,-139.92 174.33,-139.52 173.74,-139.13 172.57,-138.11 171.41,-137.09 170.86,-136.55 170.32,-136.01 169.70,-135.21 169.08,-134.41 168.65,-133.98 168.21,-133.55 167.40,-132.78 166.58,-132.01 165.85,-131.34 165.12,-130.67 164.73,-130.25 164.34,-129.83 163.64,-129.08 162.95,-128.32 162.46,-127.77 161.97,-127.22 161.15,-126.08 160.32,-124.94 159.96,-124.44 159.60,-123.94 158.96,-123.06 158.31,-122.17 157.78,-121.43 157.25,-120.69 156.95,-120.21 156.65,-119.73 156.33,-119.29 156.01,-118.85 155.68,-118.29 155.35,-117.73 154.95,-117.01 154.55,-116.28 154.12,-115.37 153.69,-114.46 153.33,-113.80 152.97,-113.13 152.62,-112.30 152.27,-111.48 151.69,-110.08 151.11,-108.68 150.54,-107.35 149.98,-106.01 149.73,-105.47 149.49,-104.94 148.94,-103.44 148.40,-101.94 148.12,-101.28 147.84,-100.61 147.65,-100.11 147.46,-99.61 147.09,-98.88 146.71,-98.14 146.49,-97.58 146.26,-97.03 145.98,-96.45 145.69,-95.87 145.46,-95.39 145.24,-94.91 144.99,-94.23 144.75,-93.55 144.32,-92.29 143.89,-91.04 143.59,-90.11 143.28,-89.19 143.05,-88.62 142.83,-88.06 142.61,-87.33 142.39,-86.60 142.20,-86.05 142.02,-85.49 141.68,-84.41 141.34,-83.33 141.18,-82.67 141.02,-82.01 140.73,-81.02 140.43,-80.03 140.13,-78.99 139.84,-77.94 139.65,-77.35 139.46,-76.77 139.22,-76.03 138.98,-75.28 138.71,-74.40 138.43,-73.52 138.02,-72.64 137.62,-71.76 137.40,-71.13 137.19,-70.50 136.90,-69.85 136.62,-69.20 136.34,-68.63 136.07,-68.06 135.84,-67.47 135.62,-66.89 135.42,-66.34 135.22,-65.79 135.02,-65.24 134.82,-64.70 134.48,-63.80 134.15,-62.91 133.99,-62.36 133.83,-61.80 133.66,-61.25 133.48,-60.70 133.17,-59.53 132.86,-58.36 132.62,-57.54 132.38,-56.71 132.06,-55.80 131.75,-54.89 131.44,-54.05 131.13,-53.21 130.75,-52.31 130.37,-51.41 130.17,-50.84 129.96,-50.27 129.77,-49.68 129.57,-49.09 129.29,-48.18 129.00,-47.27 128.80,-46.76 128.60,-46.25 128.33,-45.58 128.07,-44.91 127.79,-44.18 127.51,-43.46 127.31,-42.85 127.12,-42.25 126.87,-41.64 126.62,-41.02 126.26,-40.18 125.89,-39.34 125.52,-38.45 125.15,-37.56 124.82,-36.86 124.49,-36.16 123.96,-34.96 123.42,-33.77 123.03,-33.08 122.64,-32.39 122.34,-31.87 122.04,-31.36 121.77,-30.86 121.50,-30.37 121.05,-29.73 120.60,-29.10 120.15,-28.65 119.70,-28.20 119.22,-27.75 118.74,-27.29 118.04,-26.75 117.34,-26.22 116.57,-25.86 115.80,-25.51 115.20,-25.15 114.60,-24.79 114.04,-24.50 113.47,-24.22 112.99,-23.88 112.50,-23.55 111.87,-23.17 111.24,-22.78 110.75,-22.54 110.27,-22.30 109.62,-21.94 108.98,-21.58 108.51,-21.16 108.05,-20.74 107.62,-20.41 107.20,-20.09 106.27,-19.21 105.34,-18.34 104.60,-17.69 103.86,-17.05 102.97,-16.70 102.08,-16.36 101.36,-15.95 100.64,-15.54 99.81,-15.09 98.97,-14.64 98.02,-14.29 97.07,-13.94 96.44,-13.70 95.80,-13.46 95.19,-13.26 94.59,-13.06 93.79,-12.73 92.98,-12.40 92.00,-12.06 91.01,-11.71 90.42,-11.49 89.82,-11.28 89.02,-11.05 88.22,-10.82 87.72,-10.61 87.21,-10.40 86.45,-10.08 85.69,-9.76 84.84,-9.44 84.00,-9.11 83.46,-8.91 82.91,-8.70 82.21,-8.51 81.51,-8.33 80.25,-7.88 78.99,-7.44 78.02,-7.28 77.04,-7.13 76.14,-7.02 75.24,-6.92 74.56,-6.82 73.88,-6.72 73.12,-6.61 72.37,-6.50 71.54,-6.39 70.72,-6.28 69.53,-5.97 68.34,-5.66 67.73,-5.56 67.11,-5.46 66.51,-5.40 65.91,-5.35 65.28,-5.34 64.65,-5.34 63.99,-5.32 63.34,-5.29 61.93,-5.13 60.53,-4.96 59.64,-4.89 58.74,-4.82 58.13,-4.75 57.52,-4.69 56.84,-4.67 56.17,-4.65 55.47,-4.58 54.77,-4.52 54.18,-4.38 53.59,-4.24 52.92,-4.04 52.25,-3.84 51.69,-3.73 51.12,-3.63 50.09,-3.41 49.06,-3.19 48.15,-3.11 47.25,-3.02 46.33,-2.86 45.42,-2.70 44.52,-2.76 43.63,-2.81 42.22,-2.84 40.82,-2.88 38.82,-2.97 36.82,-3.06 34.42,-3.03 32.02,-3.00 29.14,-2.93 26.27,-2.86 23.13,-2.70 19.99,-2.55 17.01,-2.18 14.04,-1.81 11.00,-1.23 7.97,-0.64 5.73,-0.25 3.48,0.13 1.81,0.45 0.13,0.76 0.04,0.77 -0.05,0.77 -0.14,0.76 -0.23,0.74 -0.32,0.70 -0.40,0.66 -0.48,0.60 -0.55,0.54 -0.61,0.47 -0.67,0.40 -0.70,0.31 -0.74,0.22 -0.76,0.13 -0.77,0.04 -0.77,-0.05 -0.76,-0.14 -0.73,-0.23 -0.71,-0.32 -0.66,-0.40 -0.61,-0.48 -0.54,-0.55 -0.47,-0.61 -0.39,-0.66 -0.31,-0.71 -0.22,-0.74 -0.13,-0.76 -0.13,-0.76 L -0.13,-0.76 Z"/></g><g transform="translate(20.101531982421875 265.036047917977) rotate(0 25.166152954101562 -3.1728515625)" stroke="none"><path fill="#1e1e1e" d="M -0.07,-0.79 Q -0.07,-0.79 0.80,-0.89 1.67,-0.99 2.68,-1.08 3.69,-1.18 5.64,-1.45 7.60,-1.73 9.78,-2.09 11.97,-2.45 14.44,-2.85 16.91,-3.25 20.60,-3.93 24.29,-4.62 26.10,-4.91 27.91,-5.20 29.32,-5.42 30.73,-5.64 31.79,-5.82 32.86,-5.99 33.77,-6.16 34.68,-6.34 35.42,-6.53 36.15,-6.71 36.75,-6.83 37.35,-6.94 37.98,-7.01 38.61,-7.08 39.19,-7.18 39.76,-7.29 40.42,-7.35 41.07,-7.41 42.00,-7.40 42.93,-7.39 43.68,-7.41 44.43,-7.43 45.00,-7.46 45.58,-7.49 47.65,-7.52 49.73,-7.55 49.92,-7.52 50.11,-7.49 50.29,-7.40 50.46,-7.31 50.59,-7.16 50.73,-7.02 50.81,-6.84 50.89,-6.67 50.91,-6.47 50.94,-6.28 50.89,-6.08 50.85,-5.89 50.75,-5.72 50.65,-5.56 50.50,-5.43 50.35,-5.30 50.17,-5.23 49.99,-5.16 49.79,-5.15 49.60,-5.14 49.41,-5.19 49.22,-5.24 49.06,-5.35 48.89,-5.46 48.77,-5.62 48.66,-5.77 48.59,-5.96 48.53,-6.14 48.53,-6.34 48.53,-6.54 48.59,-6.72 48.66,-6.91 48.77,-7.06 48.89,-7.22 49.05,-7.33 49.22,-7.44 49.41,-7.49 49.59,-7.54 49.79,-7.53 49.99,-7.52 50.17,-7.45 50.35,-7.38 50.50,-7.25 50.65,-7.13 50.75,-6.96 50.85,-6.79 50.89,-6.60 50.94,-6.41 50.91,-6.21 50.89,-6.02 50.81,-5.84 50.73,-5.66 50.59,-5.52 50.46,-5.38 50.29,-5.28 50.11,-5.19 49.92,-5.16 49.73,-5.13 49.73,-5.13 49.73,-5.13 47.66,-5.16 45.59,-5.19 45.02,-5.21 44.45,-5.24 43.71,-5.24 42.96,-5.25 42.08,-5.21 41.19,-5.18 40.60,-5.18 40.02,-5.17 39.36,-5.13 38.70,-5.08 38.12,-5.10 37.54,-5.12 37.00,-5.11 36.45,-5.11 35.69,-5.01 34.92,-4.91 34.00,-4.78 33.08,-4.66 32.01,-4.48 30.95,-4.30 29.54,-4.07 28.13,-3.84 26.34,-3.54 24.55,-3.24 20.85,-2.54 17.15,-1.83 14.69,-1.41 12.22,-0.99 10.02,-0.60 7.83,-0.21 5.85,0.10 3.87,0.43 2.84,0.55 1.82,0.68 0.94,0.73 0.07,0.79 -0.02,0.79 -0.12,0.79 -0.21,0.76 -0.30,0.73 -0.39,0.69 -0.47,0.64 -0.54,0.57 -0.61,0.51 -0.66,0.42 -0.71,0.34 -0.75,0.25 -0.78,0.16 -0.79,0.06 -0.79,-0.02 -0.78,-0.12 -0.76,-0.21 -0.73,-0.30 -0.69,-0.39 -0.63,-0.47 -0.58,-0.54 -0.50,-0.61 -0.43,-0.67 -0.34,-0.71 -0.25,-0.75 -0.16,-0.77 -0.07,-0.79 -0.07,-0.79 L -0.07,-0.79 Z"/></g><g transform="translate(86.87875366210938 259.44492242969574) rotate(0 -38.43937683105469 2.8406982421875)" stroke="none"><path fill="#1e1e1e" d="M 0,0.78 Q 0,0.78 -1.06,0.76 -2.13,0.74 -3.61,0.61 -5.09,0.48 -6.69,0.42 -8.29,0.36 -13.17,0.34 -18.04,0.31 -20.88,0.29 -23.73,0.28 -25.52,0.27 -27.32,0.27 -29.06,0.38 -30.80,0.49 -32.34,0.74 -33.88,0.99 -35.36,1.30 -36.83,1.61 -38.51,1.75 -40.18,1.89 -41.51,2.04 -42.83,2.20 -44.04,2.37 -45.24,2.54 -46.22,2.70 -47.19,2.87 -47.99,2.98 -48.78,3.10 -49.60,3.16 -50.41,3.22 -51.01,3.28 -51.61,3.34 -52.33,3.37 -53.05,3.40 -53.66,3.51 -54.26,3.61 -55.62,3.67 -56.99,3.73 -57.75,3.87 -58.52,4.00 -59.05,4.16 -59.58,4.32 -60.69,4.45 -61.79,4.58 -63.76,4.99 -65.73,5.40 -67.95,5.82 -70.17,6.23 -72.89,6.53 -75.60,6.84 -75.75,6.83 -75.89,6.82 -76.02,6.77 -76.15,6.71 -76.26,6.62 -76.36,6.53 -76.43,6.41 -76.51,6.28 -76.53,6.15 -76.56,6.01 -76.55,5.87 -76.53,5.73 -76.47,5.60 -76.41,5.47 -76.31,5.37 -76.21,5.27 -76.09,5.20 -75.96,5.14 -75.82,5.12 -75.68,5.10 -75.54,5.12 -75.40,5.14 -75.28,5.21 -75.16,5.28 -75.06,5.38 -74.96,5.49 -74.91,5.61 -74.85,5.74 -74.83,5.88 -74.82,6.02 -74.85,6.16 -74.88,6.30 -74.96,6.42 -75.03,6.54 -75.14,6.63 -75.25,6.72 -75.38,6.77 -75.51,6.82 -75.65,6.83 -75.79,6.84 -75.93,6.80 -76.07,6.76 -76.18,6.68 -76.30,6.60 -76.38,6.48 -76.47,6.37 -76.51,6.24 -76.55,6.10 -76.55,5.96 -76.55,5.82 -76.51,5.69 -76.46,5.55 -76.37,5.44 -76.29,5.33 -76.17,5.25 -76.05,5.17 -75.91,5.14 -75.78,5.10 -75.78,5.10 -75.78,5.10 -73.13,4.87 -70.49,4.64 -68.30,4.17 -66.12,3.71 -64.11,3.21 -62.10,2.70 -61.07,2.49 -60.05,2.27 -59.44,2.16 -58.82,2.06 -57.98,1.95 -57.15,1.83 -55.83,1.67 -54.51,1.51 -53.79,1.45 -53.06,1.40 -52.35,1.42 -51.64,1.44 -51.05,1.48 -50.47,1.51 -49.69,1.52 -48.91,1.53 -48.16,1.52 -47.40,1.50 -46.41,1.37 -45.43,1.23 -44.21,1.06 -42.99,0.89 -41.64,0.73 -40.29,0.57 -38.70,0.44 -37.11,0.31 -35.60,-0.00 -34.10,-0.31 -32.50,-0.58 -30.89,-0.84 -29.11,-0.95 -27.32,-1.07 -25.52,-1.07 -23.72,-1.07 -20.88,-1.07 -18.04,-1.06 -13.14,-1.05 -8.25,-1.03 -6.61,-0.99 -4.98,-0.95 -3.55,-0.85 -2.13,-0.74 -1.06,-0.76 0,-0.78 0.09,-0.76 0.18,-0.75 0.27,-0.72 0.36,-0.69 0.44,-0.63 0.51,-0.58 0.58,-0.51 0.64,-0.44 0.68,-0.36 0.73,-0.27 0.75,-0.18 0.77,-0.09 0.77,0.00 0.77,0.09 0.75,0.18 0.73,0.27 0.68,0.36 0.64,0.44 0.58,0.51 0.51,0.58 0.44,0.63 0.36,0.69 0.27,0.72 0.18,0.75 0.09,0.76 -0.00,0.78 -0.00,0.78 L 0,0.78 Z"/></g><g transform="translate(151.04034423828125 164.2881231132895) rotate(0 19.020172119140625 -3.447540283203125)" stroke="none"><path fill="#1e1e1e" d="M -0.17,-0.90 Q -0.17,-0.90 2.14,-1.30 4.45,-1.70 6.71,-2.28 8.97,-2.87 12.21,-3.57 15.45,-4.27 19.26,-4.99 23.07,-5.72 25.86,-6.25 28.65,-6.78 30.04,-7.01 31.43,-7.24 32.07,-7.39 32.72,-7.55 35.31,-7.40 37.89,-7.25 38.04,-7.21 38.19,-7.17 38.33,-7.09 38.46,-7.00 38.56,-6.88 38.65,-6.76 38.71,-6.61 38.76,-6.46 38.77,-6.31 38.77,-6.15 38.72,-6.00 38.68,-5.85 38.59,-5.72 38.49,-5.60 38.37,-5.51 38.24,-5.41 38.09,-5.37 37.94,-5.32 37.78,-5.33 37.63,-5.33 37.48,-5.39 37.33,-5.44 37.21,-5.54 37.09,-5.64 37.01,-5.77 36.92,-5.90 36.88,-6.05 36.85,-6.20 36.86,-6.36 36.87,-6.52 36.93,-6.66 37.00,-6.80 37.10,-6.92 37.21,-7.04 37.34,-7.11 37.48,-7.19 37.63,-7.22 37.79,-7.25 37.94,-7.23 38.10,-7.21 38.24,-7.14 38.38,-7.07 38.49,-6.96 38.60,-6.85 38.67,-6.71 38.74,-6.56 38.76,-6.41 38.78,-6.25 38.75,-6.10 38.72,-5.95 38.64,-5.81 38.56,-5.67 38.45,-5.57 38.33,-5.47 38.19,-5.40 38.04,-5.34 37.89,-5.33 37.73,-5.32 37.73,-5.32 37.73,-5.32 35.35,-5.63 32.96,-5.94 32.31,-5.90 31.66,-5.86 30.29,-5.63 28.92,-5.39 26.13,-4.84 23.34,-4.28 19.56,-3.54 15.78,-2.79 12.58,-2.06 9.38,-1.33 7.07,-0.68 4.76,-0.03 2.47,0.43 0.17,0.90 0.05,0.91 -0.05,0.92 -0.16,0.90 -0.27,0.88 -0.37,0.83 -0.47,0.79 -0.56,0.72 -0.64,0.65 -0.71,0.56 -0.78,0.48 -0.83,0.37 -0.87,0.27 -0.89,0.16 -0.92,0.05 -0.91,-0.05 -0.90,-0.16 -0.87,-0.26 -0.84,-0.37 -0.78,-0.47 -0.72,-0.56 -0.65,-0.64 -0.57,-0.72 -0.47,-0.78 -0.38,-0.83 -0.27,-0.87 -0.17,-0.90 -0.17,-0.90 L -0.17,-0.90 Z"/></g><g transform="translate(116.03256225585938 157.50839899219574) rotate(0 3.508941650390625 7.990081787109375)" stroke="none"><path fill="#1e1e1e" d="M 0.63,0.61 Q 0.63,0.61 0.04,1.23 -0.54,1.85 -0.77,2.45 -0.99,3.06 -1.14,4.27 -1.28,5.48 -1.06,6.77 -0.84,8.05 -0.28,9.26 0.28,10.47 1.07,11.59 1.87,12.72 2.94,13.45 4.01,14.17 5.12,14.30 6.23,14.43 6.82,13.56 7.41,12.68 7.66,11.67 7.92,10.65 8.10,9.73 8.29,8.80 8.33,8.08 8.37,7.36 8.35,6.80 8.34,6.25 7.89,5.47 7.43,4.68 6.63,4.10 5.83,3.53 5.05,3.26 4.26,3.00 2.22,2.39 0.18,1.78 0.05,1.62 -0.08,1.47 -0.16,1.28 -0.23,1.09 -0.25,0.89 -0.26,0.69 -0.21,0.49 -0.16,0.30 -0.05,0.13 0.05,-0.03 0.21,-0.16 0.37,-0.29 0.57,-0.35 0.76,-0.42 0.96,-0.42 1.16,-0.43 1.36,-0.37 1.55,-0.30 1.72,-0.18 1.88,-0.06 2.00,0.09 2.11,0.26 2.17,0.46 2.23,0.65 2.22,0.85 2.21,1.06 2.14,1.25 2.07,1.44 1.94,1.59 1.81,1.75 1.64,1.86 1.46,1.97 1.26,2.01 1.07,2.06 0.86,2.04 0.66,2.02 0.48,1.94 0.29,1.86 0.14,1.72 -0.00,1.58 -0.10,1.40 -0.20,1.23 -0.23,1.03 -0.27,0.82 -0.24,0.62 -0.21,0.42 -0.11,0.24 -0.02,0.06 0.11,-0.07 0.26,-0.21 0.44,-0.30 0.63,-0.39 0.83,-0.42 1.03,-0.44 1.23,-0.40 1.43,-0.36 1.60,-0.26 1.78,-0.15 1.78,-0.15 1.78,-0.15 3.09,0.11 4.40,0.38 5.20,0.68 6.00,0.98 6.56,1.26 7.11,1.53 7.74,1.98 8.38,2.43 8.84,2.98 9.30,3.52 9.71,4.28 10.13,5.04 10.21,5.69 10.30,6.34 10.22,6.94 10.14,7.54 10.02,8.34 9.90,9.13 9.71,10.08 9.51,11.03 9.25,12.24 8.98,13.45 8.46,14.26 7.95,15.08 7.07,15.43 6.20,15.79 4.74,15.59 3.27,15.38 1.98,14.49 0.69,13.60 -0.20,12.37 -1.10,11.14 -1.77,9.75 -2.44,8.36 -2.73,6.84 -3.01,5.32 -2.87,3.81 -2.73,2.30 -2.30,1.45 -1.86,0.60 -1.24,-0.00 -0.63,-0.61 -0.54,-0.68 -0.46,-0.74 -0.36,-0.79 -0.27,-0.83 -0.16,-0.85 -0.06,-0.87 0.04,-0.87 0.14,-0.86 0.25,-0.83 0.35,-0.80 0.44,-0.75 0.53,-0.69 0.61,-0.62 0.68,-0.55 0.74,-0.46 0.79,-0.37 0.83,-0.26 0.86,-0.16 0.87,-0.06 0.88,0.04 0.86,0.14 0.84,0.25 0.80,0.35 0.75,0.44 0.69,0.53 0.62,0.61 0.62,0.61 L 0.63,0.61 Z"/></g><g transform="translate(133.28567504882812 164.0625371757895) rotate(0 0.221710205078125 0.1108551025390625)" stroke="none"><path fill="#1e1e1e" d="M 1.06,-0.33 Q 1.06,-0.33 1.07,-0.06 1.09,0.20 0.98,0.44 0.87,0.68 0.66,0.84 0.45,1.01 0.19,1.06 -0.06,1.10 -0.32,1.02 -0.57,0.95 -0.76,0.76 -0.95,0.57 -1.02,0.32 -1.10,0.06 -1.06,-0.19 -1.01,-0.45 -0.84,-0.66 -0.68,-0.87 -0.44,-0.98 -0.19,-1.09 0.06,-1.07 0.33,-1.05 0.55,-0.92 0.78,-0.78 0.92,-0.55 L 1.06,-0.33 Z"/></g><g transform="translate(139.9464111328125 151.431799871102) rotate(0 1.8145751953125 7.6051025390625)" stroke="none"><path fill="#1e1e1e" d="M 1.14,0 Q 1.14,0 1.07,1.46 1.01,2.93 0.98,3.91 0.96,4.89 1.84,5.01 2.72,5.12 3.84,5.45 4.96,5.77 5.56,6.03 6.17,6.28 6.69,6.74 7.21,7.21 7.50,7.83 7.78,8.45 7.75,9.26 7.72,10.07 7.37,10.79 7.01,11.51 5.99,12.32 4.96,13.13 3.87,13.79 2.78,14.44 1.59,14.84 0.40,15.23 -1.36,15.59 -3.13,15.94 -3.28,15.91 -3.43,15.87 -3.56,15.78 -3.69,15.70 -3.78,15.58 -3.88,15.46 -3.93,15.31 -3.98,15.16 -3.99,15.01 -3.99,14.86 -3.94,14.71 -3.89,14.56 -3.80,14.44 -3.71,14.31 -3.58,14.23 -3.46,14.14 -3.31,14.09 -3.16,14.05 -3.01,14.06 -2.86,14.06 -2.71,14.12 -2.57,14.17 -2.45,14.27 -2.33,14.37 -2.25,14.50 -2.17,14.63 -2.13,14.78 -2.10,14.93 -2.11,15.08 -2.12,15.24 -2.19,15.38 -2.25,15.52 -2.35,15.63 -2.46,15.75 -2.59,15.82 -2.73,15.89 -2.88,15.92 -3.03,15.95 -3.18,15.93 -3.34,15.90 -3.47,15.83 -3.61,15.76 -3.72,15.65 -3.83,15.54 -3.89,15.40 -3.96,15.27 -3.98,15.11 -4.00,14.96 -3.97,14.81 -3.94,14.66 -3.86,14.52 -3.78,14.39 -3.66,14.29 -3.55,14.19 -3.41,14.13 -3.26,14.07 -3.11,14.06 -2.96,14.05 -2.96,14.05 -2.96,14.05 -1.59,13.77 -0.22,13.50 0.72,13.12 1.66,12.75 2.57,12.07 3.48,11.39 4.13,10.77 4.79,10.14 5.11,9.45 5.43,8.77 4.92,8.30 4.42,7.84 3.56,7.66 2.71,7.48 1.99,7.48 1.28,7.47 0.56,7.35 -0.15,7.22 -0.53,6.73 -0.92,6.25 -0.94,5.57 -0.96,4.89 -0.98,3.91 -1.01,2.93 -1.07,1.46 -1.14,0 -1.12,-0.13 -1.10,-0.27 -1.06,-0.40 -1.01,-0.53 -0.93,-0.64 -0.85,-0.75 -0.75,-0.84 -0.64,-0.94 -0.52,-1.00 -0.40,-1.06 -0.27,-1.10 -0.13,-1.13 0.00,-1.13 0.13,-1.13 0.27,-1.10 0.40,-1.06 0.52,-1.00 0.64,-0.94 0.75,-0.84 0.85,-0.75 0.93,-0.64 1.01,-0.53 1.06,-0.40 1.10,-0.27 1.12,-0.13 1.14,0.00 1.14,0.00 L 1.14,0 Z"/></g><g transform="translate(138.75201416015625 146.47727106250824) rotate(0 3.296966552734375 -0.8916015625)" stroke="none"><path fill="#1e1e1e" d="M -0.31,-1.05 Q -0.31,-1.05 0.72,-1.30 1.76,-1.55 2.57,-1.78 3.38,-2.00 3.89,-2.18 4.40,-2.37 4.94,-2.53 5.47,-2.69 5.74,-2.79 6.01,-2.89 6.16,-2.90 6.31,-2.90 6.45,-2.87 6.60,-2.84 6.73,-2.77 6.87,-2.70 6.98,-2.61 7.09,-2.51 7.18,-2.39 7.27,-2.27 7.33,-2.13 7.38,-1.99 7.41,-1.85 7.43,-1.70 7.41,-1.55 7.40,-1.40 7.35,-1.26 7.30,-1.12 7.22,-0.99 7.14,-0.87 7.03,-0.77 6.92,-0.67 6.79,-0.59 6.66,-0.52 6.51,-0.48 6.37,-0.44 4.64,-0.07 2.90,0.30 2.73,0.31 2.56,0.33 2.40,0.29 2.23,0.26 2.09,0.17 1.94,0.08 1.83,-0.04 1.73,-0.17 1.66,-0.33 1.60,-0.49 1.59,-0.66 1.59,-0.83 1.63,-0.99 1.68,-1.15 1.78,-1.29 1.87,-1.43 2.01,-1.53 2.14,-1.63 2.30,-1.69 2.47,-1.74 2.64,-1.74 2.80,-1.74 2.96,-1.68 3.13,-1.63 3.26,-1.52 3.39,-1.42 3.49,-1.28 3.58,-1.14 3.63,-0.97 3.67,-0.81 3.66,-0.64 3.65,-0.47 3.59,-0.32 3.52,-0.16 3.41,-0.03 3.30,0.09 3.15,0.17 3.01,0.26 2.84,0.30 2.68,0.33 2.51,0.31 2.34,0.29 2.19,0.22 2.03,0.15 1.91,0.03 1.79,-0.08 1.71,-0.23 1.63,-0.38 1.61,-0.55 1.58,-0.71 1.61,-0.88 1.64,-1.05 1.72,-1.20 1.80,-1.35 1.92,-1.46 2.05,-1.58 2.20,-1.65 2.35,-1.72 2.35,-1.72 2.35,-1.72 4.18,-2.30 6.01,-2.89 6.16,-2.90 6.31,-2.90 6.45,-2.87 6.60,-2.84 6.73,-2.77 6.87,-2.70 6.98,-2.61 7.09,-2.51 7.18,-2.39 7.27,-2.27 7.33,-2.13 7.38,-1.99 7.41,-1.85 7.43,-1.70 7.41,-1.55 7.40,-1.40 7.35,-1.26 7.30,-1.12 7.22,-0.99 7.14,-0.87 7.03,-0.77 6.92,-0.67 6.79,-0.59 6.66,-0.52 6.51,-0.48 6.37,-0.44 5.68,-0.37 4.99,-0.30 4.44,-0.18 3.89,-0.06 3.11,0.13 2.33,0.32 1.32,0.69 0.31,1.05 0.18,1.07 0.05,1.10 -0.07,1.09 -0.21,1.08 -0.33,1.04 -0.46,1.00 -0.57,0.93 -0.68,0.86 -0.78,0.76 -0.87,0.67 -0.94,0.55 -1.01,0.44 -1.04,0.31 -1.08,0.18 -1.09,0.05 -1.10,-0.07 -1.07,-0.20 -1.04,-0.33 -0.99,-0.46 -0.93,-0.58 -0.85,-0.68 -0.77,-0.78 -0.66,-0.86 -0.56,-0.95 -0.43,-1.00 -0.31,-1.05 -0.31,-1.05 L -0.31,-1.05 Z"/></g><g transform="translate(164.51702880859375 273.50659845508636) rotate(0 -0.15869140625 1.9563751220703125)" stroke="none"><path fill="#1e1e1e" d="M 1.30,-0.11 Q 1.30,-0.11 1.36,0.58 1.42,1.29 1.30,2.06 1.19,2.84 0.98,3.38 0.77,3.93 0.71,4.09 0.64,4.24 0.54,4.37 0.44,4.51 0.31,4.61 0.18,4.72 0.03,4.79 -0.11,4.86 -0.28,4.89 -0.44,4.92 -0.61,4.91 -0.77,4.91 -0.93,4.86 -1.09,4.81 -1.24,4.73 -1.38,4.64 -1.50,4.53 -1.62,4.41 -1.71,4.27 -1.80,4.13 -1.85,3.97 -1.90,3.81 -1.91,3.64 -1.93,3.48 -1.90,3.31 -1.87,3.15 -2.07,2.61 -2.26,2.07 -1.69,1.56 -1.11,1.06 -1.19,0.83 -1.26,0.60 -1.25,0.36 -1.24,0.13 -1.16,-0.09 -1.08,-0.31 -0.93,-0.50 -0.78,-0.69 -0.58,-0.81 -0.38,-0.94 -0.15,-1.00 0.08,-1.06 0.31,-1.04 0.55,-1.02 0.77,-0.93 0.99,-0.83 1.17,-0.67 1.35,-0.51 1.47,-0.31 1.58,-0.10 1.63,0.13 1.67,0.36 1.64,0.60 1.61,0.83 1.50,1.05 1.40,1.26 1.23,1.43 1.06,1.60 0.85,1.71 0.63,1.81 0.40,1.85 0.16,1.88 -0.07,1.83 -0.30,1.79 -0.51,1.67 -0.72,1.55 -0.88,1.38 -1.04,1.20 -1.13,0.98 -1.23,0.76 -1.24,0.52 -1.26,0.28 -1.21,0.05 -1.15,-0.17 -1.02,-0.37 -0.89,-0.57 -0.71,-0.72 -0.52,-0.87 -0.30,-0.96 -0.07,-1.04 0.16,-1.04 0.40,-1.05 0.62,-0.98 0.85,-0.91 1.05,-0.77 1.24,-0.63 1.38,-0.44 1.52,-0.24 1.52,-0.24 1.52,-0.24 1.03,0.43 0.54,1.11 0.55,1.68 0.57,2.25 0.67,3.09 0.77,3.93 0.71,4.09 0.64,4.24 0.54,4.37 0.44,4.51 0.31,4.61 0.18,4.72 0.03,4.79 -0.11,4.86 -0.28,4.89 -0.44,4.92 -0.61,4.91 -0.77,4.91 -0.93,4.86 -1.09,4.81 -1.24,4.73 -1.38,4.64 -1.50,4.53 -1.62,4.41 -1.71,4.27 -1.80,4.13 -1.85,3.97 -1.90,3.81 -1.91,3.64 -1.93,3.48 -1.90,3.31 -1.87,3.15 -1.72,3.01 -1.56,2.86 -1.36,2.18 -1.16,1.50 -1.23,0.81 -1.30,0.11 -1.30,-0.03 -1.29,-0.19 -1.25,-0.34 -1.21,-0.50 -1.13,-0.63 -1.05,-0.77 -0.94,-0.89 -0.83,-1.00 -0.70,-1.09 -0.57,-1.17 -0.42,-1.23 -0.27,-1.28 -0.11,-1.29 0.03,-1.31 0.19,-1.28 0.35,-1.26 0.49,-1.20 0.64,-1.14 0.77,-1.04 0.89,-0.95 1.00,-0.83 1.10,-0.71 1.17,-0.57 1.24,-0.42 1.27,-0.27 1.30,-0.11 1.30,-0.11 L 1.30,-0.11 Z"/></g><g transform="translate(167.84295654296875 269.918127996102) rotate(0 -0.11083984375 2.1064453125)" stroke="none"><path fill="#1e1e1e" d="M 1.12,-0.70 Q 1.12,-0.70 1.44,-0.19 1.77,0.31 2.03,0.87 2.29,1.44 2.43,2.13 2.56,2.82 2.40,3.55 2.23,4.27 1.78,4.74 1.32,5.22 0.32,5.29 -0.68,5.37 -1.23,5.00 -1.78,4.63 -1.80,2.38 -1.83,0.13 -1.67,-0.03 -1.51,-0.21 -1.30,-0.32 -1.09,-0.44 -0.86,-0.48 -0.63,-0.52 -0.39,-0.49 -0.16,-0.46 0.04,-0.35 0.25,-0.24 0.42,-0.08 0.58,0.08 0.69,0.30 0.79,0.51 0.82,0.74 0.85,0.98 0.80,1.21 0.76,1.44 0.64,1.65 0.52,1.85 0.34,2.01 0.17,2.16 -0.04,2.26 -0.26,2.35 -0.49,2.36 -0.73,2.38 -0.96,2.32 -1.19,2.26 -1.39,2.14 -1.58,2.01 -1.73,1.82 -1.88,1.64 -1.96,1.41 -2.04,1.19 -2.04,0.95 -2.05,0.72 -1.98,0.49 -1.90,0.27 -1.76,0.08 -1.63,-0.10 -1.43,-0.24 -1.24,-0.38 -1.01,-0.44 -0.79,-0.51 -0.55,-0.50 -0.31,-0.50 -0.09,-0.41 0.12,-0.33 0.30,-0.18 0.48,-0.03 0.61,0.16 0.74,0.36 0.79,0.59 0.85,0.82 0.83,1.05 0.80,1.29 0.71,1.51 0.61,1.72 0.61,1.72 0.61,1.72 0.23,2.45 -0.15,3.17 -0.32,2.45 -0.49,1.72 -0.80,1.21 -1.12,0.70 -1.18,0.55 -1.25,0.41 -1.28,0.25 -1.31,0.09 -1.31,-0.05 -1.30,-0.21 -1.25,-0.37 -1.21,-0.52 -1.13,-0.66 -1.05,-0.79 -0.94,-0.91 -0.83,-1.02 -0.69,-1.11 -0.56,-1.19 -0.40,-1.24 -0.25,-1.29 -0.09,-1.30 0.06,-1.32 0.21,-1.29 0.37,-1.26 0.52,-1.20 0.66,-1.14 0.79,-1.04 0.92,-0.94 1.02,-0.82 1.12,-0.70 1.12,-0.70 L 1.12,-0.70 Z"/></g><g transform="translate(166.36627197265625 285.322180730477) rotate(0 1.4202880859375 6.892242431640625)" stroke="none"><path fill="#1e1e1e" d="M 0.19,0.94 Q 0.19,0.94 -0.36,1.08 -0.92,1.21 -1.28,1.69 -1.63,2.18 -2.06,3.30 -2.48,4.42 -2.52,5.70 -2.55,6.97 -2.48,7.94 -2.41,8.91 -2.03,10.32 -1.65,11.74 -1.35,12.72 -1.05,13.70 -0.66,14.20 -0.27,14.70 0.36,15.22 1.00,15.74 1.56,15.28 2.11,14.81 2.70,14.12 3.29,13.43 3.78,12.66 4.26,11.88 4.61,11.26 4.96,10.64 5.13,10.04 5.31,9.43 5.44,8.38 5.57,7.32 5.56,6.06 5.54,4.80 5.30,3.67 5.06,2.54 4.68,1.62 4.29,0.71 3.84,-0.00 3.38,-0.73 2.94,-1.16 2.50,-1.59 1.82,-0.39 1.15,0.80 0.93,1.38 0.72,1.97 0.67,1.87 0.62,1.77 0.55,1.88 0.49,1.99 0.40,2.09 0.32,2.18 0.21,2.25 0.10,2.32 -0.01,2.36 -0.13,2.41 -0.26,2.42 -0.39,2.43 -0.51,2.41 -0.64,2.39 -0.76,2.35 -0.88,2.30 -0.98,2.22 -1.09,2.15 -1.17,2.05 -1.25,1.95 -1.31,1.84 -1.37,1.72 -1.40,1.59 -1.42,1.47 -1.42,1.34 -1.42,1.21 -1.38,1.09 -1.35,0.96 -1.30,0.87 -1.25,0.78 -1.13,0.65 -1.02,0.52 -0.86,0.44 -0.71,0.36 -0.54,0.33 -0.37,0.30 -0.20,0.33 -0.03,0.35 0.11,0.43 0.27,0.51 0.39,0.63 0.51,0.76 0.58,0.91 0.65,1.07 0.67,1.24 0.69,1.41 0.66,1.58 0.62,1.75 0.53,1.90 0.45,2.05 0.32,2.16 0.19,2.27 0.03,2.34 -0.12,2.41 -0.30,2.42 -0.47,2.43 -0.63,2.38 -0.80,2.34 -0.94,2.24 -1.09,2.15 -1.19,2.01 -1.30,1.87 -1.36,1.71 -1.41,1.55 -1.41,1.38 -1.42,1.20 -1.36,1.04 -1.31,0.87 -1.21,0.74 -1.10,0.60 -0.96,0.50 -0.82,0.40 -0.65,0.35 -0.49,0.31 -0.31,0.31 -0.14,0.32 0.01,0.38 0.17,0.45 0.30,0.56 0.43,0.67 0.53,0.81 0.62,0.96 0.65,1.13 0.69,1.30 0.68,1.47 0.66,1.64 0.64,1.70 0.62,1.77 0.55,1.88 0.49,1.99 0.40,2.09 0.32,2.18 0.21,2.25 0.10,2.32 -0.01,2.36 -0.13,2.41 -0.26,2.42 -0.39,2.43 -0.51,2.41 -0.64,2.39 -0.76,2.35 -0.88,2.30 -0.98,2.22 -1.09,2.15 -1.17,2.05 -1.25,1.95 -1.31,1.84 -1.37,1.72 -1.40,1.59 -1.42,1.47 -1.42,1.34 -1.42,1.21 -1.38,1.09 -1.35,0.96 -1.36,1.04 -1.38,1.11 -1.11,0.51 -0.84,-0.08 -0.49,-1.03 -0.14,-1.99 0.09,-2.49 0.33,-2.99 0.72,-3.39 1.12,-3.80 2.06,-3.68 3.01,-3.57 3.43,-3.18 3.86,-2.79 4.32,-2.18 4.79,-1.58 5.26,-0.75 5.74,0.07 6.21,1.11 6.69,2.15 7.02,3.43 7.35,4.71 7.45,6.10 7.56,7.49 7.49,8.79 7.43,10.10 7.14,10.93 6.85,11.77 6.48,12.35 6.11,12.92 5.62,13.87 5.13,14.82 4.53,15.70 3.93,16.57 3.36,17.11 2.78,17.64 2.14,17.84 1.51,18.04 0.63,17.74 -0.23,17.44 -0.64,17.07 -1.05,16.69 -1.41,16.17 -1.76,15.65 -2.16,14.93 -2.56,14.21 -2.90,13.20 -3.25,12.20 -3.73,10.65 -4.20,9.09 -4.34,8.04 -4.47,6.98 -4.51,5.42 -4.54,3.86 -4.25,2.86 -3.96,1.85 -3.55,1.30 -3.14,0.75 -2.33,0.02 -1.53,-0.70 -0.86,-0.82 -0.19,-0.94 -0.08,-0.95 0.03,-0.96 0.15,-0.94 0.26,-0.92 0.37,-0.88 0.48,-0.83 0.57,-0.76 0.66,-0.69 0.74,-0.60 0.81,-0.51 0.86,-0.41 0.91,-0.30 0.93,-0.19 0.96,-0.08 0.95,0.03 0.95,0.15 0.92,0.26 0.88,0.37 0.83,0.47 0.77,0.57 0.69,0.66 0.61,0.74 0.51,0.80 0.41,0.87 0.30,0.90 0.19,0.94 0.19,0.94 L 0.19,0.94 Z"/></g><g transform="translate(326.97576904296875 259.0469121757895) rotate(0 7.532745361328125 13.172698974609375)" stroke="none"><path fill="#1e1e1e" d="M 0.52,-0.62 Q 0.52,-0.62 1.71,0.39 2.90,1.42 4.71,2.57 6.53,3.71 8.48,4.80 10.43,5.88 11.69,6.41 12.96,6.94 13.66,7.19 14.36,7.43 14.44,7.48 14.53,7.53 14.60,7.59 14.67,7.66 14.72,7.74 14.77,7.82 14.81,7.91 14.84,8.01 14.85,8.10 14.85,8.20 14.84,8.29 14.83,8.39 14.79,8.48 14.75,8.57 14.69,8.65 14.64,8.72 14.56,8.79 14.49,8.85 14.40,8.89 14.32,8.93 14.22,8.95 14.13,8.97 14.03,8.97 13.93,8.97 13.84,8.94 13.75,8.92 12.64,10.63 11.53,12.34 10.56,13.45 9.59,14.56 8.36,16.07 7.14,17.59 5.84,19.44 4.55,21.28 3.29,23.75 2.02,26.22 1.95,26.32 1.87,26.42 1.77,26.50 1.67,26.57 1.55,26.61 1.43,26.65 1.30,26.65 1.18,26.65 1.06,26.60 0.94,26.56 0.84,26.48 0.74,26.41 0.67,26.30 0.60,26.19 0.57,26.07 0.54,25.95 0.55,25.82 0.55,25.70 0.60,25.58 0.65,25.46 0.73,25.37 0.82,25.27 0.93,25.21 1.04,25.15 1.16,25.12 1.29,25.10 1.41,25.11 1.54,25.13 1.65,25.18 1.76,25.24 1.85,25.33 1.94,25.41 2.00,25.53 2.06,25.64 2.08,25.76 2.10,25.89 2.07,26.01 2.05,26.14 1.99,26.25 1.93,26.36 1.84,26.45 1.74,26.53 1.63,26.58 1.51,26.63 1.39,26.65 1.26,26.66 1.14,26.63 1.01,26.60 0.91,26.53 0.80,26.46 0.72,26.37 0.64,26.27 0.59,26.15 0.55,26.03 0.54,25.91 0.54,25.78 0.57,25.66 0.61,25.54 0.61,25.54 0.61,25.54 2.03,23.03 3.45,20.52 4.77,18.63 6.09,16.75 7.32,15.20 8.56,13.66 9.51,12.57 10.46,11.47 12.41,9.45 14.36,7.43 14.44,7.48 14.53,7.53 14.60,7.59 14.67,7.66 14.72,7.74 14.77,7.82 14.81,7.91 14.84,8.01 14.85,8.10 14.85,8.20 14.84,8.29 14.83,8.39 14.79,8.48 14.75,8.57 14.69,8.65 14.64,8.72 14.56,8.79 14.49,8.85 14.40,8.89 14.32,8.93 14.22,8.95 14.13,8.97 14.03,8.97 13.93,8.97 13.84,8.94 13.75,8.92 13.08,8.58 12.42,8.24 11.08,7.69 9.74,7.14 7.74,6.06 5.75,4.97 3.83,3.79 1.91,2.60 0.69,1.61 -0.52,0.62 -0.59,0.55 -0.65,0.48 -0.70,0.39 -0.75,0.31 -0.78,0.21 -0.80,0.12 -0.81,0.02 -0.81,-0.07 -0.79,-0.17 -0.77,-0.26 -0.72,-0.35 -0.68,-0.44 -0.62,-0.52 -0.55,-0.59 -0.47,-0.65 -0.39,-0.71 -0.30,-0.74 -0.21,-0.78 -0.11,-0.80 -0.02,-0.81 0.07,-0.80 0.17,-0.79 0.26,-0.76 0.35,-0.73 0.44,-0.67 0.52,-0.62 0.52,-0.62 L 0.52,-0.62 Z"/></g><g transform="translate(359.1512451171875 264.72922418750824) rotate(0 9.57330322265625 4.941619873046875)" stroke="none"><path fill="#1e1e1e" d="M -0.32,-0.86 Q -0.32,-0.86 1.58,-1.53 3.49,-2.20 7.20,-2.92 10.92,-3.63 13.12,-4.02 15.32,-4.42 16.32,-4.59 17.33,-4.76 18.29,-4.34 19.25,-3.92 19.28,-3.37 19.32,-2.82 18.78,-1.87 18.24,-0.92 16.81,0.58 15.38,2.08 13.96,3.62 12.54,5.16 11.31,6.51 10.07,7.87 8.84,9.71 7.61,11.55 7.08,12.40 6.55,13.26 6.44,13.59 6.32,13.93 6.26,14.01 6.19,14.09 6.11,14.15 6.03,14.21 5.94,14.25 5.84,14.29 5.74,14.31 5.64,14.33 5.54,14.32 5.44,14.32 5.34,14.29 5.25,14.25 5.16,14.20 5.07,14.15 5.00,14.08 4.93,14.00 4.88,13.92 4.82,13.83 4.79,13.73 4.76,13.63 4.76,13.53 4.75,13.43 4.77,13.33 4.79,13.23 4.83,13.14 4.88,13.04 5.87,12.74 6.87,12.43 8.15,12.19 9.44,11.94 10.65,11.74 11.85,11.54 14.38,11.17 16.90,10.80 17.04,10.81 17.18,10.82 17.30,10.87 17.43,10.93 17.54,11.02 17.64,11.11 17.71,11.23 17.78,11.35 17.81,11.48 17.84,11.62 17.83,11.76 17.81,11.89 17.75,12.02 17.69,12.14 17.60,12.24 17.50,12.34 17.38,12.41 17.25,12.47 17.12,12.49 16.98,12.52 16.84,12.49 16.71,12.47 16.58,12.40 16.46,12.34 16.37,12.24 16.27,12.13 16.21,12.01 16.16,11.88 16.14,11.74 16.13,11.60 16.16,11.47 16.19,11.33 16.26,11.22 16.34,11.10 16.44,11.01 16.55,10.92 16.68,10.87 16.81,10.82 16.95,10.81 17.08,10.81 17.22,10.84 17.35,10.88 17.47,10.96 17.58,11.04 17.66,11.15 17.75,11.26 17.79,11.39 17.83,11.53 17.83,11.66 17.83,11.80 17.79,11.93 17.74,12.07 17.66,12.18 17.57,12.29 17.45,12.36 17.34,12.44 17.21,12.48 17.07,12.51 17.07,12.51 17.07,12.51 14.60,12.77 12.12,13.03 10.94,13.26 9.76,13.49 8.04,13.71 6.32,13.93 6.26,14.01 6.19,14.09 6.11,14.15 6.03,14.21 5.94,14.25 5.85,14.29 5.74,14.31 5.64,14.33 5.54,14.32 5.44,14.32 5.34,14.29 5.25,14.25 5.16,14.20 5.07,14.15 5.00,14.08 4.93,14.00 4.88,13.92 4.82,13.83 4.79,13.73 4.76,13.63 4.76,13.53 4.75,13.43 4.77,13.33 4.79,13.23 4.83,13.14 4.88,13.04 5.08,12.76 5.29,12.49 5.83,11.61 6.36,10.73 7.64,8.78 8.91,6.83 10.11,5.45 11.32,4.06 12.70,2.47 14.08,0.88 15.34,-0.53 16.61,-1.96 17.09,-2.62 17.57,-3.27 16.58,-3.10 15.60,-2.92 13.41,-2.50 11.23,-2.07 7.65,-1.34 4.08,-0.61 2.20,0.12 0.32,0.86 0.21,0.88 0.10,0.91 -0.00,0.91 -0.11,0.91 -0.22,0.88 -0.33,0.85 -0.42,0.80 -0.52,0.75 -0.61,0.68 -0.69,0.60 -0.75,0.51 -0.81,0.42 -0.85,0.31 -0.89,0.21 -0.90,0.10 -0.92,-0.00 -0.90,-0.11 -0.89,-0.22 -0.85,-0.32 -0.81,-0.43 -0.74,-0.52 -0.68,-0.61 -0.60,-0.68 -0.51,-0.76 -0.41,-0.81 -0.32,-0.86 -0.32,-0.86 L -0.32,-0.86 Z"/></g><g transform="translate(362.27642822265625 269.98398492969574) rotate(0 9.977569580078125 -0.2225341796875)" stroke="none"><path fill="#1e1e1e" d="M 0,-0.95 Q 0,-0.95 0.77,-0.97 1.54,-0.99 3.22,-0.95 4.91,-0.90 7.34,-0.87 9.77,-0.83 12.31,-0.94 14.86,-1.04 16.93,-1.17 19.00,-1.30 19.15,-1.28 19.29,-1.26 19.42,-1.20 19.55,-1.14 19.65,-1.03 19.76,-0.93 19.82,-0.80 19.89,-0.68 19.91,-0.53 19.93,-0.39 19.90,-0.25 19.88,-0.11 19.81,0.01 19.74,0.14 19.63,0.23 19.53,0.33 19.39,0.39 19.26,0.45 19.12,0.46 18.98,0.47 18.83,0.44 18.69,0.41 18.57,0.33 18.45,0.25 18.36,0.14 18.27,0.03 18.22,-0.09 18.16,-0.23 18.16,-0.37 18.15,-0.52 18.19,-0.66 18.24,-0.79 18.32,-0.91 18.40,-1.03 18.52,-1.12 18.63,-1.20 18.77,-1.24 18.91,-1.29 19.05,-1.29 19.20,-1.28 19.33,-1.23 19.47,-1.19 19.58,-1.10 19.70,-1.01 19.77,-0.89 19.85,-0.77 19.89,-0.63 19.93,-0.49 19.92,-0.34 19.91,-0.20 19.85,-0.07 19.79,0.06 19.70,0.16 19.60,0.27 19.48,0.35 19.35,0.42 19.21,0.45 19.07,0.47 19.07,0.47 19.07,0.47 17.01,0.50 14.94,0.53 12.35,0.68 9.77,0.83 7.34,0.87 4.91,0.90 3.22,0.95 1.54,0.99 0.77,0.97 0,0.95 -0.11,0.94 -0.22,0.92 -0.33,0.88 -0.44,0.84 -0.53,0.78 -0.63,0.71 -0.71,0.62 -0.78,0.54 -0.84,0.44 -0.89,0.33 -0.92,0.22 -0.94,0.11 -0.94,-0.00 -0.94,-0.11 -0.92,-0.22 -0.89,-0.33 -0.84,-0.44 -0.78,-0.54 -0.71,-0.62 -0.63,-0.71 -0.53,-0.78 -0.44,-0.84 -0.33,-0.88 -0.22,-0.92 -0.11,-0.94 0.00,-0.95 0.00,-0.95 L 0,-0.95 Z"/></g></svg>